<?xml version="1.0" encoding="utf-8"?>
<!-- Generator: Adobe Illustrator 26.0.1, SVG Export Plug-In . SVG Version: 6.00 Build 0)  -->
<svg version="1.1" id="Layer_1" xmlns="http://www.w3.org/2000/svg" xmlns:xlink="http://www.w3.org/1999/xlink" x="0px" y="0px"
	 viewBox="0 0 841.89 595.28" style="enable-background:new 0 0 841.89 595.28;" xml:space="preserve">
<style type="text/css">
	.st0{fill:#CC2E92;}
	.st1{fill:#F05151;}
	.st2{fill:#F5C21D;}
	.st3{fill:#3BBFBA;}
	.st4{fill:#8D8C88;}
</style>
<path class="st0" d="M316.69,339.99c-3.4-16.2-6.67-32.44-11.45-48.22c-7.03-23.2-18.38-45.21-23.99-68.65
	c-0.82-3.42-0.72-7.07-0.13-10.83c2.37-15.04,17.28-24.99,32-21.12c3.92,1.03,7.33,2.55,9.75,5.04
	c11.15,11.47,19.85,25.31,30.28,39.05c3.56,4.69,11.06,1.62,10.27-4.21c-0.46-3.36-1.03-6.69-1.82-9.97
	c-5.1-21.12-13.95-41.78-15.68-63.08c-0.95-11.71,6.5-30.42,15.57-34.82c8.63-4.18,28.43,2.51,35.91,10.97
	c11.63,13.14,17.6,31.57,24.78,48.26c3.07,7.15,5.43,14.6,7.7,22.1c0.13,0.42,0.33,0.81,0.59,1.17c2.19,3,2.62,4.67,4.53,5.1
	c2.11,0.47,4.11-1.13,4.41-3.27c1.22-8.82,0.03-23.45,1.95-31.02c2.66-10.5,12.1-26.64,19.11-26.95
	c10.37-0.46,27.22,8.6,30.73,17.69c7.92,20.5,9.86,43.41,13.25,65.49c0.06,0.56,0.15,1.47,0.21,2.03c0.08,1.62,0.45,3,0.59,3.3
	c4.25,9.11,6.65,5.67,8.63,1.7c0.3-0.6,0.86-6.85,0.87-6.99c1.3-14.03-0.84-32.27,18.19-33.47c19.08-1.21,22.87,16.47,25.81,31.6
	c12.03,61.94,5.81,121.76-21.96,178.78c-11.73,24.09-25.1,47.43-35.9,71.91c-6.29,14.25-8.05,30.43-13.59,45.08
	c-3.44,9.08-8.94,22.62-15.66,24.04c-11.61,2.46-27.74,0.55-36.33-6.45c-4.82-3.92-1.76-23.82,3.74-32.89
	c14.26-23.55,33.68-44.04,47.5-67.8c10.61-18.25,15.78-36.93,22.07-57.33c0.39-1.26-0.23-7.92-1.17-9.59
	c-4.16-7.41-13.1-6.73-17.84,0.32c-0.18,0.26-1.21,1.65-1.36,1.93c-7.71,13.87-12.97,29.2-21.49,42.49
	c-22.22,34.66-51.85,36.88-81.48,8.44c-9.84-9.45-17.88-31.83-35.02-19.24c-18.8,13.81,3.77,27.14,7.53,41.04
	c5.98,22.15,11.68,44.84,12.97,67.56c0.52,9.21-9,21.35-17.26,28.12c-11.75,9.62-24.02,6.3-23.03-11.08
	c3.06-54.03-31.94-85.53-66.9-117.39c-15.47-14.1-33.12-26.43-45.91-42.62c-7.02-8.89-11.45-26.87-7.02-35.74
	c4.33-8.68,22.18-16.41,32.71-14.91c17.41,2.48,33.94,12.25,50.39,19.9c2.7,1.26,5.24,2.86,7.71,4.62
	C308.88,345.15,309.25,344.91,316.69,339.99z M425.03,409.74c19.18-0.65,32.03-15.99,31.47-37.56
	c-0.48-18.69-14.71-31.57-34.57-31.29c-19.67,0.27-34.19,15.68-33.57,35.61C388.93,394.99,405.91,410.39,425.03,409.74z"/>
<circle class="st1" cx="249.49" cy="287.49" r="23.39"/>
<circle class="st0" cx="247.06" cy="131.51" r="23.39"/>
<circle class="st2" cx="305.37" cy="146.12" r="18.5"/>
<circle class="st0" cx="344.73" cy="85.38" r="18.5"/>
<circle class="st3" cx="385.54" cy="41.63" r="16.08"/>
<circle class="st1" cx="425.46" cy="106.38" r="23.83"/>
<circle class="st0" cx="488.62" cy="123.2" r="16.81"/>
<circle class="st2" cx="564.91" cy="118.25" r="24.68"/>
<circle class="st4" cx="589.59" cy="198.91" r="24.68"/>
<circle class="st1" cx="537.6" cy="174.4" r="15.98"/>
<circle class="st4" cx="240.26" cy="188.37" r="14.14"/>
<circle class="st2" cx="181.46" cy="299.9" r="20.71"/>
<circle class="st3" cx="211.95" cy="240.95" r="11.81"/>
</svg>
